HIERARCHY
ROOT Hips
{
	OFFSET -0.001795 -0.223333 0.028219
	CHANNELS 6 Xposition Yposition Zposition Zrotation Yrotation Xrotation 
	JOINT LeftUpLeg
	{
		OFFSET 0.069520 -0.091406 -0.006815
		CHANNELS 3 Zrotation Yrotation Xrotation
		JOINT LeftLeg
		{
			OFFSET 0.034277 -0.375199 -0.004496
			CHANNELS 3 Zrotation Yrotation Xrotation
			JOINT LeftFoot
			{
				OFFSET -0.013596 -0.397961 -0.043693
				CHANNELS 3 Zrotation Yrotation Xrotation
				JOINT LeftToe
				{
					OFFSET 0.026358 -0.055791 0.119288
					CHANNELS 3 Zrotation Yrotation Xrotation
					End Site
					{
						OFFSET 0.000000 0.000000 0.000000
					}
				}
			}
		}
	}
	JOINT RightUpLeg
	{
		OFFSET -0.067670 -0.090522 -0.004320
		CHANNELS 3 Zrotation Yrotation Xrotation
		JOINT RightLeg
		{
			OFFSET -0.038290 -0.382569 -0.008850
			CHANNELS 3 Zrotation Yrotation Xrotation
			JOINT RightFoot
			{
				OFFSET 0.015774 -0.398415 -0.042312
				CHANNELS 3 Zrotation Yrotation Xrotation
				JOINT RightToe
				{
					OFFSET -0.025372 -0.048144 0.123348
					CHANNELS 3 Zrotation Yrotation Xrotation
					End Site
					{
						OFFSET 0.000000 0.000000 0.000000
					}
				}
			}
		}
	}
	JOINT Spine
	{
		OFFSET -0.002533 0.108963 -0.026696
		CHANNELS 3 Zrotation Yrotation Xrotation
		JOINT Spine1
		{
			OFFSET 0.005487 0.135180 0.001092
			CHANNELS 3 Zrotation Yrotation Xrotation
			JOINT Spine2
			{
				OFFSET 0.001457 0.052922 0.025425
				CHANNELS 3 Zrotation Yrotation Xrotation
				JOINT Neck
				{
					OFFSET -0.002778 0.213870 -0.042857
					CHANNELS 3 Zrotation Yrotation Xrotation
					JOINT Head
					{
						OFFSET 0.005152 0.064970 0.051349
						CHANNELS 3 Zrotation Yrotation Xrotation
						End Site
						{
							OFFSET 0.000000 0.000000 0.000000
						}
					}
				}
				JOINT LeftShoulder
				{
					OFFSET 0.078845 0.121749 -0.034090
					CHANNELS 3 Zrotation Yrotation Xrotation
					JOINT LeftArm
					{
						OFFSET 0.090977 0.030469 -0.008868
						CHANNELS 3 Zrotation Yrotation Xrotation
						JOINT LeftForeArm
						{
							OFFSET 0.259612 -0.012772 -0.027456
							CHANNELS 3 Zrotation Yrotation Xrotation
							JOINT LeftHand
							{
								OFFSET 0.249234 0.008986 -0.001171
								CHANNELS 3 Zrotation Yrotation Xrotation
								End Site
								{
									OFFSET 0.000000 0.000000 0.000000
								}
							}
						}
					}
				}
				JOINT RightShoulder
				{
					OFFSET -0.081759 0.118833 -0.038615
					CHANNELS 3 Zrotation Yrotation Xrotation
					JOINT RightArm
					{
						OFFSET -0.096012 0.032551 -0.009143
						CHANNELS 3 Zrotation Yrotation Xrotation
						JOINT RightForeArm
						{
							OFFSET -0.253742 -0.013329 -0.021401
							CHANNELS 3 Zrotation Yrotation Xrotation
							JOINT RightHand
							{
								OFFSET -0.255298 0.007772 -0.005559
								CHANNELS 3 Zrotation Yrotation Xrotation
								End Site
								{
									OFFSET 0.000000 0.000000 0.000000
								}
							}
						}
					}
				}
			}
		}
	}
}
MOTION
Frames: 7
Frame Time: 0.050000
0.000000 0.957492 0.000000 0.728731 -1.807873 0.035355 6.136660 0.108859 3.913551 -5.034802 0.536779 -3.752911 9.079015 18.955867 15.092682 0.000000 0.000000 0.000000 -13.275120 0.226615 -10.262121 5.455302 -0.592621 5.666983 -7.802345 -19.708498 18.491334 0.000000 0.000000 0.000000 6.183441 -1.664256 17.508252 -4.297122 1.635469 -22.892377 -1.394541 6.730178 27.043832 14.153169 -5.534440 -27.721309 0.000000 0.000000 0.000000 -10.151066 -13.201583 4.580698 -47.512530 -20.224024 -0.057766 -19.485572 -35.418046 7.569789 0.000000 0.000000 0.000000 23.062713 0.861559 0.934869 55.276535 16.075790 -0.876148 6.289555 33.209594 3.945865 0.000000 0.000000 0.000000 
-0.018154 0.954815 0.006153 1.245596 -3.043496 1.434344 6.234842 0.088742 3.474255 -4.616867 0.509753 -4.574900 11.502245 22.303463 16.158111 0.000000 0.000000 0.000000 -12.987093 0.334734 -11.050043 5.318951 -0.547596 5.761586 -8.775760 -21.341256 18.894798 0.000000 0.000000 0.000000 6.856636 -1.751245 17.390835 -4.526697 1.646692 -24.456240 -0.469749 7.080394 27.137174 12.772900 -4.704562 -27.892363 0.000000 0.000000 0.000000 -10.141799 -12.863827 4.512030 -48.282306 -20.028742 -0.082402 -21.503136 -36.293546 8.520647 0.000000 0.000000 0.000000 22.069055 0.490324 0.517796 55.927129 15.739340 -0.839544 6.557338 34.496339 4.172828 0.000000 0.000000 0.000000 
-0.037626 0.954704 0.012213 2.426344 -4.232098 1.592133 6.367608 0.092839 3.208666 -5.192965 0.589554 -2.638308 12.314238 23.251637 17.739206 0.000000 0.000000 0.000000 -13.517412 0.377064 -10.425825 6.893998 -0.727740 4.425666 -10.041937 -23.354667 18.333367 0.000000 0.000000 0.000000 7.301123 -1.768547 17.241239 -3.512235 1.383622 -24.682318 -1.268675 8.785419 27.139687 13.026507 -4.442043 -29.173047 0.000000 0.000000 0.000000 -11.083171 -12.852285 4.370928 -48.061512 -20.601538 0.113279 -20.782799 -35.111600 7.911945 0.000000 0.000000 0.000000 21.541382 -0.365152 0.323558 54.524516 17.295014 -0.298128 7.870608 35.267024 4.804697 0.000000 0.000000 0.000000 
-0.058256 0.954029 0.017760 3.164858 -5.315630 0.986571 6.880903 0.099140 2.948752 -5.787576 0.709637 -0.137028 14.725718 26.175679 19.871426 0.000000 0.000000 0.000000 -13.118869 0.431842 -9.979496 7.050160 -0.726409 4.615520 -10.917426 -24.741766 18.174631 0.000000 0.000000 0.000000 8.574902 -2.141058 19.571668 -4.693231 1.647179 -25.307073 -1.466760 7.996743 27.148436 12.300090 -4.376251 -28.498600 0.000000 0.000000 0.000000 -10.471822 -12.458930 4.419474 -49.242421 -21.011556 0.320294 -20.098958 -36.353982 8.146344 0.000000 0.000000 0.000000 21.366233 0.798319 0.599617 53.359562 20.209146 1.017343 6.334160 36.051244 4.290311 0.000000 0.000000 0.000000 
-0.078933 0.955445 0.022524 3.905273 -6.743619 0.797530 7.959354 0.028774 0.179569 -6.630262 1.035306 5.895428 13.959259 25.000507 20.377254 0.000000 0.000000 0.000000 -12.972837 0.497396 -9.794993 7.473935 -0.731129 3.872684 -11.115142 -25.178491 17.352636 0.000000 0.000000 0.000000 9.044302 -2.269494 20.834710 -4.127992 1.502412 -25.569459 -1.621012 8.387640 26.616998 11.775478 -4.170208 -28.146090 0.000000 0.000000 0.000000 -10.871757 -12.786439 4.627312 -49.450318 -21.090340 0.436549 -20.008565 -36.756860 8.249052 0.000000 0.000000 0.000000 20.236244 1.922558 1.106727 52.824001 22.200557 1.989082 5.872481 36.954932 4.201448 0.000000 0.000000 0.000000 
-0.097958 0.957466 0.027555 4.116752 -8.765255 1.040396 9.526651 0.050939 -2.870411 -7.820099 1.638011 11.535406 15.383206 26.257818 23.106393 0.000000 0.000000 0.000000 -12.013415 0.612006 -10.077664 7.119136 -0.643314 3.779441 -10.741528 -24.802450 16.327607 0.000000 0.000000 0.000000 9.329002 -2.330349 21.966697 -3.522698 1.333388 -25.609283 -1.453901 8.724647 25.730683 10.182077 -3.245527 -28.653291 0.000000 0.000000 0.000000 -11.562658 -11.727826 4.277013 -50.415456 -20.352514 0.284683 -20.406995 -37.574712 8.683411 0.000000 0.000000 0.000000 19.345127 2.540951 1.210110 51.751646 24.184291 2.904056 5.257568 35.863614 3.728715 0.000000 0.000000 0.000000 
-0.115145 0.959416 0.034622 5.040631 -10.213300 0.883235 9.989660 0.106082 -5.150652 -8.556249 2.124622 14.549603 15.279202 25.919115 23.502311 0.000000 0.000000 0.000000 -12.187848 0.660350 -9.090828 6.748360 -0.565486 3.178612 -9.607786 -23.162878 15.224034 0.000000 0.000000 0.000000 9.548125 -2.256046 21.621515 -4.144994 1.453744 -25.120426 -1.342799 8.739978 25.878121 10.391175 -3.505875 -28.611630 0.000000 0.000000 0.000000 -12.314490 -11.703379 4.441019 -50.731590 -20.386522 0.317696 -20.568903 -37.941560 8.940408 0.000000 0.000000 0.000000 18.351228 2.861531 1.170041 52.124308 25.390324 3.542187 5.283585 34.949796 3.544544 0.000000 0.000000 0.000000 
